<?xml version="1.0" encoding="utf-8"?><svg xmlns="http://www.w3.org/2000/svg" width="12.061" height="12.059" viewBox="0 0 12.061 12.059">
  <path id="instagram-brands" d="M5.957,34.763a3.092,3.092,0,1,0,3.092,3.092A3.087,3.087,0,0,0,5.957,34.763Zm0,5.1a2.01,2.01,0,1,1,2.01-2.01,2.014,2.014,0,0,1-2.01,2.01ZM9.9,34.636a.721.721,0,1,1-.721-.721A.719.719,0,0,1,9.9,34.636Zm2.048.732a3.569,3.569,0,0,0-.974-2.527,3.592,3.592,0,0,0-2.527-.974c-1-.057-3.98-.057-4.975,0a3.587,3.587,0,0,0-2.527.971,3.58,3.58,0,0,0-.974,2.527c-.057,1-.057,3.98,0,4.975a3.569,3.569,0,0,0,.974,2.527,3.6,3.6,0,0,0,2.527.974c1,.057,3.98.057,4.975,0a3.569,3.569,0,0,0,2.527-.974,3.592,3.592,0,0,0,.974-2.527C12,39.345,12,36.364,11.944,35.368Zm-1.286,6.041a2.035,2.035,0,0,1-1.146,1.146,13.289,13.289,0,0,1-3.554.242A13.393,13.393,0,0,1,2.4,42.555a2.035,2.035,0,0,1-1.146-1.146,13.29,13.29,0,0,1-.242-3.554A13.393,13.393,0,0,1,1.256,34.3,2.035,2.035,0,0,1,2.4,33.154a13.289,13.289,0,0,1,3.554-.242,13.393,13.393,0,0,1,3.554.242A2.035,2.035,0,0,1,10.658,34.3a13.289,13.289,0,0,1,.242,3.554A13.282,13.282,0,0,1,10.658,41.409Z" transform="translate(0.075 -31.825)" fill="#777"/>
</svg>
