<svg xmlns="http://www.w3.org/2000/svg" width="141.807" height="16.031" viewBox="0 0 141.807 16.031">
  <g id="Groupe_28" data-name="Groupe 28" transform="translate(-912 -1246.438)">
    <g id="Groupe_25" data-name="Groupe 25" transform="translate(912 1255.046)">
      <line id="Ligne_4" data-name="Ligne 4" x2="55.646" transform="translate(86.161)" fill="none" stroke="#fff" stroke-width="2"/>
      <line id="Ligne_5" data-name="Ligne 5" x2="55.646" transform="translate(0)" fill="none" stroke="#fff" stroke-width="2"/>
    </g>
    <g id="four-leaf-clover" transform="translate(975.166 1246.438)">
      <g id="Groupe_27" data-name="Groupe 27" transform="translate(0)">
        <g id="Icons_7_" transform="translate(0)">
          <g id="Groupe_26" data-name="Groupe 26">
            <path id="Tracé_59" data-name="Tracé 59" d="M11.4,7a.489.489,0,0,0,.686,0,27.15,27.15,0,0,0,2.387-2.57,4.165,4.165,0,0,0,.972-2.462,1.959,1.959,0,0,0-3.7-.9,1.959,1.959,0,0,0-3.7.9,4.169,4.169,0,0,0,.972,2.462A27.466,27.466,0,0,0,11.4,7Z" transform="translate(-3.73)" fill="#fff"/>
            <path id="Tracé_60" data-name="Tracé 60" d="M12.088,16.726a.488.488,0,0,0-.686,0A27.3,27.3,0,0,0,9.014,19.3a4.169,4.169,0,0,0-.972,2.463,1.96,1.96,0,0,0,3.7.9,1.96,1.96,0,0,0,3.7-.9,4.168,4.168,0,0,0-.972-2.463A27.042,27.042,0,0,0,12.088,16.726Z" transform="translate(-3.73 -7.691)" fill="#fff"/>
            <path id="Tracé_61" data-name="Tracé 61" d="M22.656,11.744a1.96,1.96,0,0,0-.9-3.7,4.172,4.172,0,0,0-2.462.972,27.3,27.3,0,0,0-2.57,2.387.487.487,0,0,0,0,.686,27.383,27.383,0,0,0,2.57,2.388,4.169,4.169,0,0,0,2.462.972,1.959,1.959,0,0,0,.9-3.7Z" transform="translate(-7.691 -3.729)" fill="#fff"/>
            <path id="Tracé_62" data-name="Tracé 62" d="M7,12.088A.489.489,0,0,0,7,11.4a27.3,27.3,0,0,0-2.57-2.387,4.167,4.167,0,0,0-2.461-.972,1.96,1.96,0,0,0-.9,3.7,1.959,1.959,0,0,0,.9,3.7,4.167,4.167,0,0,0,2.461-.972A27.382,27.382,0,0,0,7,12.088Z" transform="translate(-0.002 -3.729)" fill="#fff"/>
          </g>
        </g>
      </g>
    </g>
  </g>
</svg>
