<svg xmlns="http://www.w3.org/2000/svg" width="26.243" height="19.682" viewBox="0 0 26.243 19.682"><path id="envelope-solid" d="M25.746,70.5a.309.309,0,0,1,.5.241V81.222a2.461,2.461,0,0,1-2.46,2.46H2.46A2.461,2.461,0,0,1,0,81.222V70.745A.307.307,0,0,1,.5,70.5c1.148.892,2.67,2.025,7.9,5.823,1.082.789,2.906,2.45,4.726,2.44,1.83.015,3.69-1.681,4.731-2.44C23.081,72.529,24.6,71.391,25.746,70.5ZM13.122,77.122c1.189.02,2.9-1.5,3.762-2.122,6.8-4.936,7.319-5.367,8.888-6.6a1.227,1.227,0,0,0,.472-.969V66.46A2.461,2.461,0,0,0,23.783,64H2.46A2.461,2.461,0,0,0,0,66.46v.974a1.234,1.234,0,0,0,.472.969C2.04,69.628,2.558,70.064,9.359,75,10.22,75.625,11.932,77.142,13.122,77.122Z" transform="translate(0 -64)" fill="#d6a859"></path></svg>