<?xml version="1.0" encoding="utf-8"?><svg xmlns="http://www.w3.org/2000/svg" xmlns:xlink="http://www.w3.org/1999/xlink" width="883" height="477.216" viewBox="0 0 883 477.216"><defs><filter id="a" x="0" y="0" width="856.207" height="259.346" filterUnits="userSpaceOnUse"><feOffset dx="3" dy="8" input="SourceAlpha"/><feGaussianBlur stdDeviation="9.5" result="b"/><feFlood flood-opacity="0.51"/><feComposite operator="in" in2="b"/><feComposite in="SourceGraphic"/></filter></defs><g transform="translate(-505.5 -291.5)"><g transform="matrix(1, 0, 0, 1, 505.5, 291.5)" filter="url(#a)"><path d="M52.971,202.347c-1.788,0-3.436-.031-4.76-.056H48.2c-.984-.019-1.834-.034-2.518-.034-4.525,0-14.945-1.922-19.81-3.963-2.285-.958-6.924-4.862-11.543-9.715-5.181-5.442-9.138-10.732-10.858-14.514-.892-1.962-1.647-5.478-2.245-10.45-.518-4.308-.894-9.566-1.088-15.208-.376-10.941,0-20.723.9-23.258l.183-.52c1.9-5.379,6.339-17.976,10.027-24.319,3.719-6.4,9.763-15.73,10.019-16.124.554-.643,13.622-15.788,19.15-20.891.656-.605,1.378-1.276,2.076-1.925,5.709-5.3,14.332-13.317,20.121-16.791,1.966-1.179,4.651-3.051,7.761-5.217C77.738,34.23,86.9,27.846,94.145,25.183c10.548-3.878,13.753-4.352,19.049-4.571.577-.024,1.192-.058,1.786-.09,1.421-.078,3.026-.166,4.783-.166a49.253,49.253,0,0,1,18.728,3.761,21.7,21.7,0,0,1,11.427,10.1,21.163,21.163,0,0,1,2.288,6.51c0,.157.447,15.73-.61,19.962l-.124.5c-1.106,4.453-3.164,12.74-9.323,20.072-.542.645-1.083,1.294-1.656,1.982-6.215,7.46-13.948,16.745-26.521,24.838C99.7,117.266,91.581,121.5,79.211,126.215a100.026,100.026,0,0,1-20.058,4.876A108.687,108.687,0,0,1,46.3,132.311c-.79,0-2.417-.074-4.477-.167-3.478-.158-8.242-.374-12.15-.374-3.589,0-5.777.177-6.688.542l-.28.112c-2.864,1.141-4.592,1.83-4.444,5.374.038.906-.008,2.231-.065,3.908-.173,5.051-.435,12.684,1.285,18.645l.259.9.018.062c2.131,7.423,3.971,13.834,10.695,17.78,7.032,4.128,9.624,5.488,13.41,5.791l.682.056c1.841.153,4.623.383,7.923.383a59.085,59.085,0,0,0,13.644-1.506c.674-.161,1.347-.317,2.06-.483a104.418,104.418,0,0,0,16.689-5,107.3,107.3,0,0,0,23.157-13.257c11.943-8.746,24.172-18.281,34-25.943l0,0c6.1-4.753,10.908-8.5,14-10.78a46.353,46.353,0,0,1,7.891-4.37c6.121-2.882,11.9-5.6,13.6-14.069A136.329,136.329,0,0,1,182.6,91.052a69.425,69.425,0,0,1,8.3-16.8c1.512-2.131,2.766-4.088,3.978-5.98,4.245-6.626,8.255-12.885,22.536-25.868A332.135,332.135,0,0,1,244,20.269,133.474,133.474,0,0,1,255.891,12.4a58.452,58.452,0,0,1,10.45-4.9c2.85-.95,5.366-1.824,7.586-2.6l.027-.009C281.767,2.186,286.483.547,292.4.192,294.578.061,296.249,0,297.659,0a29.507,29.507,0,0,1,10.284,1.715,51.17,51.17,0,0,1,8.61,3.753c2.225,1.231,5.207,3.139,6.781,5.238a20.44,20.44,0,0,1,3.143,7.314,35.47,35.47,0,0,1,.972,9.143c-.018.71-.032,1.434-.045,2.135v.031c-.1,5.313-.207,10.808-2.088,15.511a47.379,47.379,0,0,1-4.724,9.2A208.4,208.4,0,0,1,306.723,72.27c-11.248,13.642-16.913,17.39-21.91,20.7-1.365.9-2.653,1.756-4,2.771-2.9,2.194-10.39,5.683-19.543,9.105-9.183,3.433-17.81,5.959-22.515,6.591a88.756,88.756,0,0,1-11.789.683c-4.541,0-9.105-.228-13.133-.43h-.018c-1.959-.1-3.81-.191-5.538-.252-.409-.015-.818-.022-1.214-.022a19.978,19.978,0,0,0-9.05,1.808,8.423,8.423,0,0,0-4.212,4.31,35.778,35.778,0,0,0-1.6,9.924c-.158,3.61-.008,8.837,1.6,13.239a41.771,41.771,0,0,0,4.229,9.029,53.717,53.717,0,0,0,6.743,7.886c1.216,1.246,2.386,2.559,3.625,3.95,5.011,5.624,10.69,12,21.366,15.556,13.3,4.434,17.983,5.639,25.3,7.009,7.207,1.352,31.356,1.829,36.878,1.829,4.529,0,32.092-.9,40.077-2.59,1.693-.358,3.8-.759,6.239-1.223,9.037-1.72,21.413-4.075,28.963-7.311,2.916-1.25,6.794-2.464,11.284-3.87l.007,0c5.146-1.611,10.978-3.438,16.95-5.813a91.655,91.655,0,0,0,17.627-9.058c3.695-2.5,7.507-4.963,11.193-7.347,12.587-8.139,24.476-15.826,31.627-24.5,2.547-3.09,4.9-5.608,6.785-7.632,5.091-5.456,7.646-8.195,5.1-12.179-2.711-4.243-10.855-11.742-15.722-16.222-1.38-1.27-2.469-2.273-3.022-2.826-2.038-2.038-16.82-17.673-22.4-26.973-5.178-8.629-7.423-19.841-7.772-26.82a14.281,14.281,0,0,1,2.134-8.457,10.759,10.759,0,0,1,7.162-4.8,24.772,24.772,0,0,1,4.653-.482c4.186,0,8.03,1.343,14.09,3.987,2.641,1.153,4.777,2.317,6.663,3.345,3.447,1.879,5.937,3.237,9.032,3.237a11.1,11.1,0,0,0,1.982-.182c4.268-.766,6.565-3.725,9.224-7.151,1.051-1.354,2.136-2.752,3.424-4.125a48.109,48.109,0,0,1,10.153-7.6c4.31-2.512,8.385-4.241,11.182-4.743a30.409,30.409,0,0,1,5.341-.443c4.92,0,9.583,1.012,11.879,2.577a18.337,18.337,0,0,1,7.924,12.648,43.365,43.365,0,0,1-.476,11.258,71.884,71.884,0,0,1-2.877,12.058c-.354,1.04-.635,1.9-.906,2.739-1.593,4.9-2.47,7.606-12.5,28.195-6.062,12.44-10.04,17.885-12.177,20.81-2.02,2.765-2.5,3.422-1.69,5.7.713,2.009,3.783,4.112,9.125,6.248a101.309,101.309,0,0,0,10.838,3.505c2.819.759,17.783,5.643,26.724,8.56l.036.012c3.685,1.2,6.347,2.072,6.917,2.247,1.708.526,24.846,6.831,37.183,9.144,7.023,1.316,21.393,2.868,29.334,3.676,11.039,1.123,20.971,1.962,22.477,1.962.823,0,2.171.152,4.211.382a261.509,261.509,0,0,0,31.752,1.751c7.646,0,16.038.09,24.152.177h.01c7.724.083,15.02.161,21.349.161,7.382,0,12.24-.107,15.289-.338,10.846-.822,44.468-4.331,51.05-7.772,1.947-1.018,3.437-1.944,4.634-2.688,2.221-1.381,3.562-2.215,5.391-2.215a8.151,8.151,0,0,1,2.167.331,4.5,4.5,0,0,1,3.016,2.13c.932,1.775.262,4.273-.426,6.251a6.738,6.738,0,0,1-3.772,3.962,52.252,52.252,0,0,1-9.486,3.048c-8.452,2.186-35.332,8.063-57.907,8.991-3.959.163-8.129.34-12.544.528-18.149.771-38.716,1.645-48,1.645-1.14,0-2.1-.013-2.847-.04-4.421-.155-24.108-2.117-42.992-4.285-11.2-1.285-37.9-4.465-44.021-6.229-6.281-1.808-23.048-6.2-36.521-9.736l-.02-.005c-8.019-2.1-14.353-3.763-16.185-4.278-1.315-.37-4.665-1.673-8.906-3.323-10.3-4.007-25.865-10.063-31.009-10.063a2.587,2.587,0,0,0-1.382.281,8.9,8.9,0,0,0-3.328,4.063,40.546,40.546,0,0,1-5.205,7.823c-5.367,6.545-14.783,15.115-19.842,19.719l-.019.017c-.82.747-1.529,1.391-2.083,1.9-2.194,2.025-13.5,9.289-22.515,14.9s-20.982,12.812-25.029,14.667c-3.774,1.73-20.107,7.077-34.135,11.505-16.1,5.082-29.988,9.242-32.306,9.676-4.635.869-27.748,3.353-29.41,3.353l-1.3.01c-2.68.022-8.956.074-16.187.074-11.888,0-26.884-.147-30.816-.846-7-1.244-30.131-6.746-37.031-9.3a97.644,97.644,0,0,1-15.182-8.114c-6.394-4.02-11.3-7.727-13.466-10.171q-.432-.487-.874-.984c-4.61-5.179-9.836-11.049-12.841-20.351a55.106,55.106,0,0,1-2.225-10.429c-.426-3.212-.66-4.981-2.348-5.572a10.618,10.618,0,0,0-3.34-.825,6.163,6.163,0,0,0-3.67,1.587c-1.135.836-2.436,1.956-3.814,3.141a59.743,59.743,0,0,1-6.7,5.241c-3.566,2.229-36.539,27.715-37.941,28.8-.1.059-9.569,5.883-20.1,11.945-9.75,5.613-22.479,12.619-27.753,14.115S61.351,202.347,52.971,202.347Zm63.792-168.1a52.3,52.3,0,0,0-6.922.692c-7.328,1.028-14.711,4.155-21.944,9.3-2.4,1.708-4.99,3.592-7.728,5.586l-.016.012-.006,0c-3.83,2.79-8.171,5.951-12.975,9.332-4.251,2.991-12.021,12.072-17.791,19.162-6.212,7.634-11.566,14.749-11.619,14.82-.125.175-12.519,17.571-14.63,21.791-.528,1.056-.626,1.834-.3,2.379.6,1.006,2.576,1.064,4.667,1.125.887.026,1.8.053,2.644.154,1.014.122,2.971.189,5.512.189,7.529,0,18.694-.583,25.422-1.865,6.567-1.251,11.816-3.839,17.374-6.579,2.631-1.3,5.348-2.637,8.379-3.936,7.083-3.036,13.329-8.292,19.37-13.375,2.133-1.8,4.339-3.651,6.536-5.369a47.306,47.306,0,0,0,8.336-8.628c2.3-2.992,4.091-5.851,5.534-8.148.777-1.237,1.446-2.3,1.978-3.034a41.678,41.678,0,0,0,5.181-9.9c.426-1.385.181-5.626.049-7.905a13.583,13.583,0,0,1-.059-1.551h0s.006,0,.009.008.006.009.01.009c.022,0,.058-.1.09-.257a9.937,9.937,0,0,0-2.465-8.075,11.675,11.675,0,0,0-4.036-2.8C122.236,35.148,120.025,34.245,116.762,34.245ZM290.607,16.221c-4.315,0-8.122,1.14-17.714,5.3A117.16,117.16,0,0,0,255.1,31.545c-6.5,4.336-12.146,8.712-15.734,11.62-4.565,3.7-11.531,11.706-16.572,17.771-5.424,6.528-9.9,12.342-9.943,12.4s-3.517,4.741-6.248,8.839c-4.5,6.751-7.241,11.283-7.924,13.1a.86.86,0,0,0,.085.806c.756,1.172,4.308,1.977,10.558,2.393l.023,0c.3.02.748.03,1.328.03,3.6,0,11.584-.385,15.282-.64,4.616-.319,19.342-3.414,26.211-6.4a131.76,131.76,0,0,0,12.838-6.609c5.307-3.065,10.626-6.481,15.81-10.153a63.12,63.12,0,0,0,14.5-13.969c1.264-1.59,2.455-3.089,3.791-4.469a44.385,44.385,0,0,0,6.914-10.915c2.181-4.632,3.356-8.584,3.143-10.572-.082-.771-.126-1.537-.168-2.278a20.561,20.561,0,0,0-.747-5.178,15.186,15.186,0,0,0-3.5-5.8c-4.256-4.667-5.56-4.76-9.88-5.065-.485-.034-.987-.07-1.548-.115C292.269,16.26,291.409,16.221,290.607,16.221Zm144.3,15.128a3.646,3.646,0,0,0-2.163.692c-1.609,1.114-.789,2.763.452,5.258.285.574.606,1.219.92,1.9.626,1.365,6.27,13.512,11.734,19.658,4.822,5.426,15.738,18.913,15.848,19.049.1.1,10.251,10.244,13.867,13.258,1.505,1.254,2.48,1.789,3.258,1.789,1.143,0,1.95-1.16,3.285-3.082l.161-.232a51.093,51.093,0,0,0,3.792-7.165c1.146-2.439,2.445-5.2,4.131-8.226l.418-.749a161.692,161.692,0,0,0,8.725-17.384c3.841-8.8,7.432-18.336,9.143-23.468,1.838-5.514,2.443-8.676.914-11.734a6.106,6.106,0,0,0-5.62-3.336,7.106,7.106,0,0,0-1.389.135c-2.426.485-7.654,3.045-11.277,5.944l-.384.307a66.347,66.347,0,0,0-10.74,10.208c-1.984,2.314-3.362,4.058-4.469,5.459a50.825,50.825,0,0,1-4.217,4.9,4.584,4.584,0,0,1-3.338,1.5c-1.788,0-3.78-1.005-6.087-2.169l-.046-.023-.74-.372c-4.131-2.065-9.96-4.907-10.206-5.027-.079-.049-7.655-4.736-10.975-5.792-.446-.142-.87-.283-1.244-.407A12.874,12.874,0,0,0,434.909,31.348Z" transform="translate(25.5 20.5)" fill="#fff"/></g><text transform="translate(566.5 513.5)" fill="#d6a859" font-size="157" font-family="AlexBrush-Regular, Alex Brush"><tspan x="56.808" y="130">Emma Event</tspan></text><text transform="translate(531.5 703.716)" fill="#d6a859" font-size="43" font-family="Montserrat-Regular, Montserrat"><tspan x="238.225" y="42">Wedding Planner</tspan></text><line x2="527" transform="translate(696.5 684.5)" fill="none" stroke="#ebebeb" stroke-width="2"/></g></svg>