<?xml version="1.0" encoding="utf-8"?><svg xmlns="http://www.w3.org/2000/svg" xmlns:xlink="http://www.w3.org/1999/xlink" width="910.397" height="779.031" viewBox="0 0 910.397 779.031"><defs><linearGradient id="a" x1="0.229" y1="0.354" x2="0.673" y2="0.681" gradientUnits="objectBoundingBox"><stop offset="0" stop-color="#026f4f"/><stop offset="1" stop-color="#d6a859"/></linearGradient><filter id="b" x="0" y="0" width="910.397" height="779.031" filterUnits="userSpaceOnUse"><feOffset dx="5" dy="9" input="SourceAlpha"/><feGaussianBlur stdDeviation="4.5" result="c"/><feFlood flood-opacity="0.161"/><feComposite operator="in" in2="c"/><feComposite in="SourceGraphic"/></filter></defs><g transform="matrix(0.966, -0.259, 0.259, 0.966, -3161.896, 3786.848)"><g transform="matrix(0.97, 0.26, -0.26, 0.97, 4034.26, -2839.46)" filter="url(#b)"><path d="M2979.671-1115.23c-5.693,0-11.275-.088-14.567-.229-3.681-.157-10.516-1.768-18.285-4.307-7.633-2.495-14.308-5.307-17.419-7.34l-.38-.248c-3.365-2.194-7.551-4.923-10.669-9.846a27.757,27.757,0,0,1-3.639-9.237,48.074,48.074,0,0,1-.6-13.761,92.358,92.358,0,0,1,2.51-15.061,81.107,81.107,0,0,1,4.04-11.894,88.622,88.622,0,0,1,8.741-15.519c.256-.377.545-.809.911-1.357l.083-.124.006-.008a183.406,183.406,0,0,1,17.821-23.089,178.668,178.668,0,0,1,23.2-20.493c9.3-8.246,19.037-15.359,27.628-21.635l.01-.007.014-.011.121-.089c2.809-2.052,5.714-4.175,8.442-6.226,5.188-3.9,10.994-8.337,15.659-11.9l.015-.012.031-.024.056-.042.083-.063.031-.024c7.24-5.53,13.492-10.307,15.83-11.907.835-.572,1.68-1.131,2.7-1.8,6.143-4.05,11.945-7.876,11.607-14.954a16.589,16.589,0,0,0-1.376-5.875,16.49,16.49,0,0,0-3.445-5.072,17.091,17.091,0,0,0-12.418-4.907h-.258c-4.7.057-11.493,1.136-20.776,3.3-7.883,1.837-15.845,4.061-21.659,5.684l-.006,0-.021.005-.011,0c-11.3,3.155-61.018,16.677-68.243,18.122-7.414,1.483-50.143,8.495-54.649,8.495-.793,0-2.28.057-4.339.135l-.029,0h-.008l-.041,0c-4.193.16-10.531.4-17.322.4-11.079,0-19.389-.658-24.7-1.957a36.169,36.169,0,0,1-9.216-3.568,29.88,29.88,0,0,1-7.344-5.829,34.247,34.247,0,0,1-5.5-8.229,51.386,51.386,0,0,1-3.7-10.768c-1.055-7.805-.875-14.4-.647-22.74v-.051l0-.066c.147-5.536,1.887-12.449,3.729-19.768l.005-.02,0-.011,0-.006,0-.008c-.063-.222.784-3.041,2.71-7.5a126.651,126.651,0,0,1,8.9-16.848c3.677-5.766,11.6-16.746,19.714-27.324,9.175-11.961,16.551-20.789,20.236-24.221,4.242-3.948,14.47-12.463,24.319-20.246,7.054-5.577,19.9-15.512,26.652-19.4l.008,0,.009-.005a131.929,131.929,0,0,0,13.385-8.344,23.721,23.721,0,0,0,7.42-8.592,25.574,25.574,0,0,0,1.981-12.23c-.246-4.284-1.3-8.043-2.754-9.809-1.325-1.61-3.286-2.6-6.358-3.22a83.589,83.589,0,0,0-10.838-1.034h-.007l-.243-.014-.775-.045-.094-.005-.317-.019c-1.06-.062-2.708-.094-4.9-.094-16.6,0-59.756,1.754-67.2,2.241-8.046.527-23.825,3.6-32.524,7.991-8.062,4.073-21.261,14.476-24.443,22.168a34.329,34.329,0,0,0-2.638,11.816,28.5,28.5,0,0,0,2.019,11.944,51.978,51.978,0,0,0,6.8,11.361,50.753,50.753,0,0,0,7.645,8.177c2.17,1.737,3.292,2.929,3.752,3.986a3.925,3.925,0,0,1-.3,3.377c-.462,1.027-1.515,1.548-3.131,1.548a10.421,10.421,0,0,1-2.668-.4c-.11-.034-11.065-3.458-14.436-6.83a27.069,27.069,0,0,0-2.353-1.944l-.009-.007-.017-.013a41.516,41.516,0,0,1-9.944-10.108,31.135,31.135,0,0,1-3.976-8.809,38.59,38.59,0,0,1-1.23-12.114c1.013-21.261,12.821-32.317,19.164-38.256l.1-.1.2-.189.069-.065.055-.051.017-.016.265-.249c6.49-6.108,13.048-10.047,25.064-15.053,12.638-5.264,28.675-6.452,36.381-7.023,5.717-.423,15.1-.682,23.383-.911l.079,0,.4-.011h.034c2.708-.075,5.117-.142,7.174-.209,2.6-.083,7.131-.125,13.472-.125,7.608,0,16.276.06,21.455.1h.025c2.327.016,4.163.029,4.874.029,2.675,0,6.747-.314,10.019-.567l.22-.017.461-.035.089-.007c.657-.05,1.277-.1,1.843-.138a15.376,15.376,0,0,0,5.8-1.756,9.931,9.931,0,0,0,4.254-3.786c1.688-3.236,6.557-12.04,10.7-18.688a144.511,144.511,0,0,1,10.472-13.926,106.127,106.127,0,0,1,11.953-12.624c3.077-2.516,8.653-7.889,14.045-13.085l.006-.006.028-.027.013-.014.046-.044.006-.005.01-.009c5.649-5.444,10.986-10.585,13.556-12.585.613-.475,2.005-1.678,4.113-3.5l.043-.037.021-.018.009-.007.007-.006c6.3-5.446,18.03-15.582,30.993-25.431,18.787-14.274,32.635-23.724,40.046-27.33,2.14-1.259,7.225-3.342,13.952-5.714,5.867-2.069,11.593-3.85,13.923-4.332a30.411,30.411,0,0,1,5.781-.443,64.859,64.859,0,0,1,8.94.645,35.619,35.619,0,0,1,8.092,1.988c3.381,1.383,7.535,5.857,10.424,9.366a62.133,62.133,0,0,1,6.718,9.581,88.464,88.464,0,0,1,5.283,16.755,50.782,50.782,0,0,1,.723,10.327,88.221,88.221,0,0,1-1.883,15.062,84.082,84.082,0,0,1-8.764,23.329l-.019.034c-6.314,11.36-6.435,11.577-18.154,24.2a222.163,222.163,0,0,1-48.845,33.768,87.525,87.525,0,0,1-12.273,4.956c-3.9,1.266-8.219,2.426-12.832,3.447-8.461,1.875-16.451,2.98-22.285,3.786l-.129.017c-1.324.183-2.717.377-3.906.552a132.872,132.872,0,0,1-15.43.7h-.047c-5.2.061-10.578.125-15.162.521-5.19.448-8.532,1.271-10.217,2.515a8.8,8.8,0,0,0-3.528,8.122,19.267,19.267,0,0,0,1.981,6.958c1.495,2.99,4.205,7.868,6.445,11.6.145.243.3.494.476.786l.01.016.066.108.059.1.016.026c2.472,4.035,6.611,10.79,4.011,15.465-2.246,4.044-7.9,6.078-13.362,8.046l-.025.009-.034.012c-1.4.5-2.846,1.026-4.208,1.572-1.7.682-4.153,1.55-7,2.555l-.073.026-.031.011-.012,0c-8.358,2.955-20.987,7.42-29.646,12.51-9.517,5.594-22.639,16.093-31.322,23.041l0,0-.011.008-.009.007c-1.615,1.294-3.446,2.76-4.871,3.876-7.523,5.9-19.712,18.6-28.613,28.226-9.494,10.265-20.606,23.437-26.421,31.319a73.853,73.853,0,0,0-7.49,12.947,59.031,59.031,0,0,0-4.1,11.754c-1.292,6.338-2.43,19.773,0,22.856a19.375,19.375,0,0,0,5.445,4.6,25.328,25.328,0,0,0,8.713,3.127,191.574,191.574,0,0,0,27.28,1.878c1.6,0,3.223-.022,4.821-.064,7.644-.2,16.359-.875,25.2-1.941,7.535-.909,14.741-2.051,20.292-3.215,7.524-1.157,18.542-3.2,29.471-5.455,12.028-2.486,22.114-4.851,28.4-6.66,7.5-2.155,16.9-4.48,25.2-6.531l.01,0,.026-.006.074-.018.121-.03c6.824-1.688,13.265-3.281,17.489-4.5a111.535,111.535,0,0,0,13.3-4.451c4.263-1.875,6.583-3.778,7.093-5.818.422-1.683.03-3.66-.513-6.4a63.942,63.942,0,0,1-1.242-8.578,57.059,57.059,0,0,1,.655-12.852c1.389-8.816,9.991-21.129,16.962-29.905a221.068,221.068,0,0,1,20.948-22.968c7.881-7.095,24.715-20.566,38.793-28.6a72.961,72.961,0,0,1,10.767-5.01,84.245,84.245,0,0,1,10.976-3.217,115.631,115.631,0,0,1,21.468-2.532c.641-.02,1.29-.031,1.929-.031a61.69,61.69,0,0,1,20.125,3.334c6.8,2.414,11.977,5.937,14.973,10.189a52.21,52.21,0,0,1,4.2,6.844,28.171,28.171,0,0,1,2.419,6.905c1.009,4.88.783,10.581-.734,18.488-2.816,14.685-10.938,28.686-22.871,39.425-5.963,5.367-15.415,10.814-22.294,14.438a206.409,206.409,0,0,1-20.285,9.424c-8.591,3.257-27.487,9.974-38.883,13.821-9.787,3.3-20.5,9.435-21.5,13.98a2.815,2.815,0,0,0,.915,2.792l1.414,1.334.211.2.284.268.053.05,0,0,.009.009c3.262,3.084,4.613,4.36,9.634,8.6,6.01,5.073,8.441,9.706,7.881,15.019a13.226,13.226,0,0,1-3.233,7.073,37.236,37.236,0,0,1-5.782,5.374c-3.827,3.007-39.536,33.406-52.342,44.426-3.27,2.814-7.435,5.762-11.845,8.883l-.008.006,0,0-.054.039c-4.138,2.93-8.417,5.96-12.7,9.371a108.237,108.237,0,0,0-11.113,10.119l-.005,0c-1.733,1.747-3.7,3.727-6.5,6.433-2.1,2.307-4.084,4.384-6,6.392l-.093.1-.006.007-.024.024-.012.013-.014.015c-3.443,3.608-6.7,7.016-10.13,11.175-2.089,2.527-4.686,5.1-7.437,7.833l-.015.014-.009.008a113.9,113.9,0,0,0-13.421,15.087,45.319,45.319,0,0,0-8.12,26.936c.117,2.907.427,6.239,1.837,8.91,1.5,2.834,4.059,4.642,7.83,5.526,3.983.933,9.263,1.912,14.125,2.619a124.093,124.093,0,0,0,17.15,1.443,45.316,45.316,0,0,0,6.874-.454c10.689-1.673,37.319-10.284,47.3-14.857,9.956-4.559,45.882-23.448,53.8-28.032,3.071-1.777,8.419-4.752,14.082-7.9l.041-.022.025-.015c9.574-5.325,20.426-11.36,24.36-13.865,6.145-3.911,28.355-19.007,34.829-23.5,1.385-.961,4.354-3,7.533-5.183l.089-.061.024-.016.062-.043c13-8.932,37.207-25.557,41-28.676,3.518-2.9,17.967-11.967,28.517-18.589l.009-.006.012-.007.3-.186.129-.082.006,0c3.256-2.043,6.623-4.156,8.491-5.365l.635-.41.009-.005.006,0c3.528-2.278,8.358-5.4,12.365-8.487a43.431,43.431,0,0,0,5.138-4.518,7.861,7.861,0,0,0,2.337-3.846c.293-2.341-2.469-7.945-4.838-12.234-2.324-4.212-4.786-8.092-5.255-8.827l-.006-.009,0,0c-.3-.5-3.015-5.073-5.667-10.749a80.028,80.028,0,0,1-3.814-9.547,27.251,27.251,0,0,1-1.56-8.865,32.25,32.25,0,0,1,2.945-13.168,17.048,17.048,0,0,1,8.1-8.069,23.414,23.414,0,0,1,9.869-2.017,26.467,26.467,0,0,1,7.2.975,15.635,15.635,0,0,1,5.579,2.741c4.841,3.986,10.589,14.959,11.327,17.556.068.24.148.558.241.927l.007.027v.006l0,.02c.714,2.846,2.2,8.768,5.3,8.768a4.793,4.793,0,0,0,3.225-1.819,20.191,20.191,0,0,0,4.44-6.758,13.555,13.555,0,0,1,5.188-6.551,12.381,12.381,0,0,1,7.557-2.213,24.149,24.149,0,0,1,8.087,1.538,19.678,19.678,0,0,1,5.876,3.224c3.65,3.185,8.076,7.737,9.908,14.724a20.352,20.352,0,0,1-.047,10.188,27.714,27.714,0,0,1-4.2,9.067c-1.791,2.566-7.917,5.762-14.4,9.145l-.005,0-.008,0c-7,3.652-14.236,7.427-16.447,10.669a36.948,36.948,0,0,0-3.937,6.725,5.668,5.668,0,0,0-.311,3.753c.423,1.635,14.233,14.447,23.371,22.924l0,0,.008.006.293.272.1.09c3.339,3.1,5.976,5.546,6.958,6.528,1.691,1.691,8.772,8.368,16.861,15.653,6.826,6.147,15.852,14.054,20.084,16.817,10.174,6.644,18.283,10.652,24.792,12.252,4.413,1.085,19.315,2.6,33.558,2.6,9.789,0,22.645-.719,28.3-4.146a147.565,147.565,0,0,0,17.708-12.783c5.95-5.015,10.32-9.607,12.305-12.929a32.824,32.824,0,0,0,3.907-13.073,32.7,32.7,0,0,0-.789-12.38c-1.953-6.138-3.785-8.734-10.181-11.074a18.974,18.974,0,0,0-6.563-1.339c-2.848,0-5.577.87-9.419,3a21.444,21.444,0,0,0-6.455,5.436,23.8,23.8,0,0,1-4.115,3.973,7.506,7.506,0,0,1-4.494,1.577,7.777,7.777,0,0,1-3.526-.888,10.132,10.132,0,0,1-2.548-1.849l-.176-.175-.018-.018a26.658,26.658,0,0,1-5.311-7.066,21.857,21.857,0,0,1-1.842-14.394,25.758,25.758,0,0,1,3.325-8.423,32.015,32.015,0,0,1,5.5-6.672,38.089,38.089,0,0,1,12.694-7.846,65.388,65.388,0,0,1,20.087-3.2,36.381,36.381,0,0,1,9.177,1.008c3.971,1.055,9.078,3.946,13.662,7.734,4.782,3.95,8.353,8.319,9.8,11.986a46.155,46.155,0,0,1,2.532,14.039,97.554,97.554,0,0,1-.212,13.026,101.71,101.71,0,0,1-3.854,16.878c-2.481,8.132-5.278,14.726-7.875,18.566a89.369,89.369,0,0,1-15.273,16.819,106.115,106.115,0,0,1-28.04,17.593,189.352,189.352,0,0,1-20.857,3.676,166.46,166.46,0,0,1-19.436,1.051c-3.228,0-6.7-.071-10.608-.217a77.639,77.639,0,0,1-15.756-2.048,72.754,72.754,0,0,1-9.744-3.22l-.047-.019c-1.339-.523-2.6-1.017-3.84-1.416a70.946,70.946,0,0,1-14.307-7.606c-4.257-3.006-8.978-7.053-18.042-15.464-9.185-8.524-17.757-17.318-23.429-23.136l-.033-.034-.011-.012-.015-.015-.011-.012-.035-.036,0,0c-2.791-2.863-4.807-4.931-5.717-5.75-4.454-4-12.5-12.383-18.376-18.5l0,0-.079-.083c-1.953-2.034-3.318-3.453-4.445-4.611-1.076-1.1-2.07-2.269-3.031-3.4l-.005-.006a37.074,37.074,0,0,0-3.976-4.221,6.464,6.464,0,0,0-4.171-1.832,5.724,5.724,0,0,0-2.975.916c-1.4.839-15.587,10.275-35.228,23.335l-.047.031-.011.006-.052.035-.134.089c-41.283,27.45-110.373,73.39-155.848,102.842-17.888,11.585-35,21.146-42.308,25.229l-.011.006-.006,0-.047.026-.313.175c-1.646.92-2.836,1.585-3.325,1.883-9.8,5.984-31.112,11.824-39.311,13.147C2999.719-1115.335,2985.509-1115.23,2979.671-1115.23Zm295.553-239.188a5.354,5.354,0,0,0-1.77.311,5.432,5.432,0,0,0-3.38,2.71,14.623,14.623,0,0,0-1.048,4.466c-.105.761-.214,1.548-.364,2.408a23.151,23.151,0,0,0,3.7,16.118,67.31,67.31,0,0,1,3.521,5.92,52.994,52.994,0,0,0,4.757,7.584c.7.908,1.379,1.865,2.034,2.791,2.65,3.743,5.153,7.279,8.939,7.28a6.485,6.485,0,0,0,.789-.05,27.555,27.555,0,0,0,7.623-1.988,58.478,58.478,0,0,0,9.584-5.418c2.2-1.468,4.29-2.744,6.131-3.87,4.818-2.945,8.3-5.073,9.552-7.893,1.687-3.794,2.873-7.382-1.09-9.583a12.978,12.978,0,0,0-6.292-1.887,9.856,9.856,0,0,0-5.686,1.887,27.9,27.9,0,0,0-6.346,6.712,45.084,45.084,0,0,1-3.021,3.743,2.47,2.47,0,0,1-1.852.851c-1.309,0-2.91-.978-4.759-2.908a37.307,37.307,0,0,1-3.844-4.913,25.94,25.94,0,0,1-2.65-5.7,53.075,53.075,0,0,0-2.361-5.626,51.305,51.305,0,0,0-6.752-9.583,8.815,8.815,0,0,0-1.457-1.681A6.057,6.057,0,0,0,3275.224-1354.418Zm-119-88.585c-7.677,0-11.769,1.281-23.046,7.216l-.708.372c-10.541,5.547-10.541,5.547-19.455,12.769l-.576.466c-.8.65-1.655,1.34-2.565,2.075-1.5,1.213-2.935,2.366-4.377,3.527l0,0c-7.935,6.391-8.087,6.513-12.608,10.846-7.4,7.091-12.6,12.647-15.9,16.988a85.5,85.5,0,0,0-6.779,10.238c-2.286,4.249-2.863,7.034-1.716,8.277,1.05,1.137,2.9,1.69,5.639,1.69,3.737,0,9.186-.991,17.666-3.215l2.475-.647.622-.162.263-.068c10.112-2.635,11.169-2.911,23.432-8.053a187.938,187.938,0,0,0,20.121-10.128c7.122-4.07,12.695-7.684,15.382-9.475,7.142-4.761,12.632-11.543,16.265-16.031l.072-.088a26.792,26.792,0,0,0,4.33-8.876c.976-3.289,1.321-6.314.9-7.9a7.794,7.794,0,0,0-1.77-2.88,19.3,19.3,0,0,0-3.729-3.164,22.54,22.54,0,0,0-11.709-3.756C3157.648-1442.994,3156.922-1443,3156.228-1443Zm-170.209-127.511-.1.13c-1.916,2.558-2.709,3.617-5.351,10.1a18.29,18.29,0,0,0-1.44,5.591,6.324,6.324,0,0,0,.824,3.924,5.129,5.129,0,0,0,4.485,2.084c.266.007.59.011.965.011,5.925,0,24.5-1.067,39.117-5.939,14.638-4.879,32.113-12.334,41.551-17.726a207.224,207.224,0,0,0,17.971-12.17c6.824-5.062,12.458-9.663,14.7-12.008a101.593,101.593,0,0,0,9.408-12.052c2.718-4.03,6.2-9.747,7.36-14.095a51.763,51.763,0,0,0,1.563-13.291c-.053-4.934-.837-8.865-2.208-11.068a9.18,9.18,0,0,0-4.621-3.57,20.525,20.525,0,0,0-7.476-1.232,38.8,38.8,0,0,0-10.071,1.452c-10.144,2.748-18.918,7.924-25.969,12.083l-.66.389a298.664,298.664,0,0,0-33.76,23.96c-7.252,5.95-14.507,11.915-20.981,17.25l-.177.146-.018.015,0,0-.013.01c-.509.469-5.124,4.734-10.459,10.016-5.054,5-11.748,11.911-14.933,16.421l.013-.022Zm.367-.506h0c-.014,0-.2.27-.361.5l.083-.111.008-.01.169-.226.085-.113c.012-.019.019-.034.017-.037Z" transform="matrix(0.97, -0.26, 0.26, 0.97, -2216.19, 2547.07)" fill="url(#a)"/></g></g></svg>