<svg xmlns="http://www.w3.org/2000/svg" width="12" height="9" viewBox="0 0 12 9">
  <path id="envelope-solid" d="M11.773,66.972a.141.141,0,0,1,.227.11v4.793A1.125,1.125,0,0,1,10.875,73H1.125A1.125,1.125,0,0,1,0,71.875V67.084a.14.14,0,0,1,.227-.11c.525.408,1.221.926,3.612,2.662A4.193,4.193,0,0,0,6,70.752a4.2,4.2,0,0,0,2.163-1.116C10.554,67.9,11.248,67.38,11.773,66.972ZM6,70c.544.009,1.327-.684,1.72-.97,3.11-2.257,3.347-2.454,4.064-3.016A.561.561,0,0,0,12,65.57v-.445A1.125,1.125,0,0,0,10.875,64H1.125A1.125,1.125,0,0,0,0,65.125v.445a.564.564,0,0,0,.216.443c.717.56.954.759,4.064,3.016C4.673,69.316,5.456,70.009,6,70Z" transform="translate(0 -64)" fill="#777"/>
</svg>
