<svg height="512pt" viewBox="0 0 512 512" width="512pt" xmlns="http://www.w3.org/2000/svg"><path d="m420.546875 236.953125c-37.089844 0-59.421875 15.683594-72.089844 30.011719l-.207031-.023438-.246094.027344c-17.722656-19.449219-42.273437-30.015625-70.386718-30.015625-52.992188 0-91.453126 40.308594-91.453126 95.839844 0 33.121093 20.449219 68.996093 60.78125 106.632812 35.679688 33.292969 74.777344 56.65625 82.253907 61.003907 3.070312 1.78125 9.898437 5.71875 9.898437 5.71875l9.988282 5.757812 9.984374-5.761719s6.824219-3.933593 9.890626-5.71875c7.476562-4.34375 46.574218-27.710937 82.253906-61 40.332031-37.636719 60.785156-73.511719 60.785156-106.632812 0-55.53125-38.460938-95.839844-91.453125-95.839844zm-71.46875 228.785156c-49.5-28.820312-122.9375-87.902343-122.9375-132.949219 0-33.40625 20.6875-55.855468 51.476563-55.855468.398437 0 .789062.023437 1.1875.03125 43.890624 6.183594 70.738281 64.167968 70.738281 64.167968s23.636719-57.773437 68.15625-64.136718c.941406-.027344 1.878906-.0625 2.847656-.0625 30.789063 0 51.472656 22.449218 51.472656 55.855468 0 45.046876-73.441406 104.128907-122.941406 132.949219zm-125.539063 6.101563c16.242188 14.769531 33.890626 28.46875 50.242188 39.976562h-163.582031c-33.066407 0-59.96875-26.902344-59.96875-59.96875v-209.894531l-23.285157 21.242187-26.945312-29.535156 256.128906-233.660156 215.890625 196.972656h-59.320312l-156.570313-142.855468-165.917968 151.363281v246.367187c0 11.023438 8.964843 19.992188 19.988281 19.992188zm0 0"/></svg>