<svg width="0" height="0" class="hidden" display="none">
<symbol xmlns="http://www.w3.org/2000/svg" viewBox="0 0 19.585 11.886" id="arrow-up">
    <path d="M10.554.315l8.716 8.716a1.076 1.076 0 0 1 0 1.522l-1.017 1.017a1.076 1.076 0 0 1-1.52 0l-6.94-6.908-6.94 6.908a1.076 1.076 0 0 1-1.52 0L.316 10.553a1.076 1.076 0 0 1 0-1.522L9.032.315a1.076 1.076 0 0 1 1.522 0z" fill="#fff"></path>
  </symbol>
<symbol xmlns="http://www.w3.org/2000/svg" viewBox="0 0 40.792 39.759" id="arrow-left">
    <path d="M23.45 37.096l-2.021 2.021a2.176 2.176 0 0 1-3.086 0L.642 21.427a2.176 2.176 0 0 1 0-3.086l17.7-17.7a2.176 2.176 0 0 1 3.086 0l2.022 2.022a2.188 2.188 0 0 1-.036 3.123L12.441 16.238h26.166a2.18 2.18 0 0 1 2.185 2.185v2.913a2.18 2.18 0 0 1-2.185 2.185H12.441l10.971 10.452a2.172 2.172 0 0 1 .038 3.123z"
      fill="#fff"></path>
  </symbol>
<symbol xmlns="http://www.w3.org/2000/svg" viewBox="0 0 40.792 39.759" id="arrow-left-emeraude">
    <path d="M23.45 37.096l-2.021 2.021a2.176 2.176 0 0 1-3.086 0L.642 21.427a2.176 2.176 0 0 1 0-3.086l17.7-17.7a2.176 2.176 0 0 1 3.086 0l2.022 2.022a2.188 2.188 0 0 1-.036 3.123L12.441 16.238h26.166a2.18 2.18 0 0 1 2.185 2.185v2.913a2.18 2.18 0 0 1-2.185 2.185H12.441l10.971 10.452a2.172 2.172 0 0 1 .038 3.123z"
      fill="#023d2b"></path>
  </symbol>
  <symbol viewBox="0 0 16 14" fill="none" xmlns="http://www.w3.org/2000/svg" id="arrow-right">
    <path d="M9.3.3L7.9 1.7 12.2 6H0v2h12.2l-4.3 4.3 1.4 1.4L16 7 9.3.3z" fill="#fff"></path>
  </symbol>
  <symbol viewBox="0 0 16 14" fill="none" xmlns="http://www.w3.org/2000/svg" id="arrow-right-emeraude">
    <path d="M9.3.3L7.9 1.7 12.2 6H0v2h12.2l-4.3 4.3 1.4 1.4L16 7 9.3.3z" fill="#023d2b"></path>
  </symbol>
  <symbol xmlns="http://www.w3.org/2000/svg" viewBox="0 0 12 9" id="envelop">
    <path d="M11.773 2.972a.141.141 0 0 1 .227.11v4.793A1.125 1.125 0 0 1 10.875 9h-9.75A1.125 1.125 0 0 1 0 7.875V3.084a.14.14 0 0 1 .227-.11c.525.408 1.221.926 3.612 2.662A4.193 4.193 0 0 0 6 6.752a4.2 4.2 0 0 0 2.163-1.116c2.391-1.736 3.085-2.256 3.61-2.664zM6 6c.544.009 1.327-.684 1.72-.97 3.11-2.257 3.347-2.454 4.064-3.016A.561.561 0 0 0 12 1.57v-.445A1.125 1.125 0 0 0 10.875 0h-9.75A1.125 1.125 0 0 0 0 1.125v.445a.564.564 0 0 0 .216.443c.717.56.954.759 4.064 3.016.393.287 1.176.98 1.72.971z"
      fill="#777777"></path>
  </symbol>
  <symbol xmlns="http://www.w3.org/2000/svg" viewBox="0 0 24 24" id="facebook">
    <path d="M15.997 3.985h2.191V.169C17.81.117 16.51 0 14.996 0c-3.159 0-5.323 1.987-5.323 5.639V9H6.187v4.266h3.486V24h4.274V13.267h3.345l.531-4.266h-3.877V6.062c.001-1.233.333-2.077 2.051-2.077z" data-original="#000000" data-old_color="#000000" ></path>
  </symbol>
  <symbol xmlns="http://www.w3.org/2000/svg" viewBox="0 0 12.061 12.059" id="instagram">
    <path d="M6.032 2.938A3.092 3.092 0 1 0 9.124 6.03a3.087 3.087 0 0 0-3.092-3.092zm0 5.1a2.01 2.01 0 1 1 2.01-2.01 2.014 2.014 0 0 1-2.01 2.01zm3.943-5.227a.721.721 0 1 1-.721-.721.719.719 0 0 1 .721.721zm2.048.732a3.569 3.569 0 0 0-.974-2.527A3.592 3.592 0 0 0 8.522.042c-1-.057-3.98-.057-4.975 0a3.587 3.587 0 0 0-2.527.971A3.58 3.58 0 0 0 .046 3.54c-.057 1-.057 3.98 0 4.975a3.569 3.569 0 0 0 .974 2.527 3.6 3.6 0 0 0 2.527.974c1 .057 3.98.057 4.975 0a3.569 3.569 0 0 0 2.527-.974 3.592 3.592 0 0 0 .974-2.527c.052-.995.052-3.976-.004-4.972zm-1.286 6.041a2.035 2.035 0 0 1-1.146 1.146 13.289 13.289 0 0 1-3.554.242 13.393 13.393 0 0 1-3.562-.242 2.035 2.035 0 0 1-1.146-1.146 13.29 13.29 0 0 1-.242-3.554 13.393 13.393 0 0 1 .244-3.555 2.035 2.035 0 0 1 1.144-1.146 13.289 13.289 0 0 1 3.554-.242 13.393 13.393 0 0 1 3.554.242 2.035 2.035 0 0 1 1.15 1.146 13.289 13.289 0 0 1 .242 3.554 13.282 13.282 0 0 1-.242 3.555z"
      ></path>
  </symbol>
  <symbol xmlns="http://www.w3.org/2000/svg" viewBox="0 0 10.5 14.738" id="map">
    <path d="M4.71 14.441C.737 8.378 0 7.755 0 5.527A5.394 5.394 0 0 1 5.25 0a5.394 5.394 0 0 1 5.25 5.527c0 2.228-.737 2.851-4.71 8.914a.638.638 0 0 1-1.08 0zm.54-6.611a2.247 2.247 0 0 0 2.187-2.3 2.247 2.247 0 0 0-2.187-2.3 2.247 2.247 0 0 0-2.187 2.3 2.247 2.247 0 0 0 2.187 2.3z"
      fill="#777777"></path>
  </symbol>
  <symbol xmlns="http://www.w3.org/2000/svg" viewBox="0 0 16.047 16.047" id="phone">
    <path d="M15.589 11.34l-3.51-1.5a.752.752 0 0 0-.878.216l-1.555 1.9a11.617 11.617 0 0 1-5.553-5.562l1.9-1.555a.75.75 0 0 0 .216-.878L4.7.455a.757.757 0 0 0-.858-.436L.583.771A.752.752 0 0 0 0 1.505a14.541 14.541 0 0 0 14.542 14.542.752.752 0 0 0 .733-.583l.752-3.26a.761.761 0 0 0-.439-.865z"
      fill="#777777"></path>
  </symbol>
<symbol viewBox="0 0 512 512" xmlns="http://www.w3.org/2000/svg" id="home">
    <path d="M420.547 236.953c-37.09 0-59.422 15.684-72.09 30.012l-.207-.024-.246.028c-17.723-19.45-42.274-30.016-70.387-30.016-52.992 0-91.453 40.309-91.453 95.84 0 33.121 20.45 68.996 60.781 106.633 35.68 33.293 74.778 56.656 82.254 61.004 3.07 1.78 9.899 5.718 9.899 5.718l9.988 5.758 9.984-5.761s6.825-3.934 9.89-5.72c7.478-4.343 46.575-27.71 82.255-61C491.547 401.79 512 365.916 512 332.794c0-55.531-38.46-95.84-91.453-95.84zm-71.469 228.785c-49.5-28.82-122.937-87.902-122.937-132.949 0-33.406 20.687-55.855 51.476-55.855.399 0 .79.023 1.188.03 43.89 6.184 70.738 64.169 70.738 64.169s23.637-57.774 68.156-64.137c.942-.027 1.88-.062 2.848-.062 30.789 0 51.473 22.449 51.473 55.855 0 45.047-73.442 104.129-122.942 132.95zM223.54 471.84c16.242 14.77 33.89 28.469 50.242 39.976H110.2c-33.066 0-59.969-26.902-59.969-59.968V241.953l-23.285 21.242L0 233.66 256.129 0l215.89 196.973H412.7L256.13 54.117 90.21 205.48v246.368c0 11.023 8.965 19.992 19.988 19.992zm0 0"></path>
  </symbol>
<symbol xmlns="http://www.w3.org/2000/svg" viewBox="0 0 140.201 12.506" id="divider_coeur">
    <path d="M75.907.855a3.817 3.817 0 0 0-5.209.38l-.55.567-.55-.567a3.817 3.817 0 0 0-5.209-.38 4.008 4.008 0 0 0-.276 5.8l5.401 5.578a.875.875 0 0 0 1.265 0l5.4-5.577a4.006 4.006 0 0 0-.274-5.8z" fill="#fff"></path>
    <path fill="none" stroke="#fff" stroke-width="2" d="M85.185 6.211H140.2M0 6.211h55.015"></path>
  </symbol>
  <symbol xmlns="http://www.w3.org/2000/svg" viewBox="0 0 95.274 10.771" id="divider_trefle">
    <path d="M57.888 5.783h37.386M0 5.783h37.386" fill="none" stroke="#023d2b" stroke-width="2"></path>
    <path d="M47.593 4.7a.328.328 0 0 0 .461 0 18.241 18.241 0 0 0 1.6-1.726 2.8 2.8 0 0 0 .653-1.654 1.316 1.316 0 0 0-2.488-.6 1.316 1.316 0 0 0-2.487.6 2.8 2.8 0 0 0 .653 1.654A18.453 18.453 0 0 0 47.593 4.7zm.46 1.371a.328.328 0 0 0-.461 0 18.34 18.34 0 0 0-1.6 1.726 2.8 2.8 0 0 0-.653 1.655 1.317 1.317 0 0 0 2.488.6 1.317 1.317 0 0 0 2.488-.6 2.8 2.8 0 0 0-.653-1.655 18.169 18.169 0 0 0-1.609-1.726zm4.439-.686a1.317 1.317 0 0 0-.6-2.488 2.8 2.8 0 0 0-1.654.653 18.341 18.341 0 0 0-1.726 1.6.327.327 0 0 0 0 .461 18.4 18.4 0 0 0 1.726 1.6 2.8 2.8 0 0 0 1.654.653 1.316 1.316 0 0 0 .6-2.487zm-5.356.23a.328.328 0 0 0 0-.461 18.341 18.341 0 0 0-1.724-1.599 2.8 2.8 0 0 0-1.653-.653 1.317 1.317 0 0 0-.6 2.488 1.316 1.316 0 0 0 .6 2.487 2.8 2.8 0 0 0 1.654-.653 18.4 18.4 0 0 0 1.723-1.609z"
      fill="#023d2b"></path>
  </symbol>
</svg>