<svg width="0" height="0" class="hidden" display="none">
<symbol xmlns="http://www.w3.org/2000/svg" viewBox="0 0 19.585 11.886" id="arrow-up">
    <path d="M10.554.315l8.716 8.716a1.076 1.076 0 0 1 0 1.522l-1.017 1.017a1.076 1.076 0 0 1-1.52 0l-6.94-6.908-6.94 6.908a1.076 1.076 0 0 1-1.52 0L.316 10.553a1.076 1.076 0 0 1 0-1.522L9.032.315a1.076 1.076 0 0 1 1.522 0z" fill="#fff"></path>
  </symbol>
<symbol xmlns="http://www.w3.org/2000/svg" viewBox="0 0 40.792 39.759" id="arrow-left">
    <path d="M23.45 37.096l-2.021 2.021a2.176 2.176 0 0 1-3.086 0L.642 21.427a2.176 2.176 0 0 1 0-3.086l17.7-17.7a2.176 2.176 0 0 1 3.086 0l2.022 2.022a2.188 2.188 0 0 1-.036 3.123L12.441 16.238h26.166a2.18 2.18 0 0 1 2.185 2.185v2.913a2.18 2.18 0 0 1-2.185 2.185H12.441l10.971 10.452a2.172 2.172 0 0 1 .038 3.123z"
      fill="#fff"></path>
  </symbol>
  <symbol viewBox="0 0 16 14" fill="none" xmlns="http://www.w3.org/2000/svg" id="arrow-right">
    <path d="M9.3.3L7.9 1.7 12.2 6H0v2h12.2l-4.3 4.3 1.4 1.4L16 7 9.3.3z" fill="#FFF"></path>
  </symbol>
  <symbol xmlns="http://www.w3.org/2000/svg" viewBox="0 0 12 9" id="envelop">
    <path d="M11.773 2.972a.141.141 0 0 1 .227.11v4.793A1.125 1.125 0 0 1 10.875 9h-9.75A1.125 1.125 0 0 1 0 7.875V3.084a.14.14 0 0 1 .227-.11c.525.408 1.221.926 3.612 2.662A4.193 4.193 0 0 0 6 6.752a4.2 4.2 0 0 0 2.163-1.116c2.391-1.736 3.085-2.256 3.61-2.664zM6 6c.544.009 1.327-.684 1.72-.97 3.11-2.257 3.347-2.454 4.064-3.016A.561.561 0 0 0 12 1.57v-.445A1.125 1.125 0 0 0 10.875 0h-9.75A1.125 1.125 0 0 0 0 1.125v.445a.564.564 0 0 0 .216.443c.717.56.954.759 4.064 3.016.393.287 1.176.98 1.72.971z"
      fill="#777777"></path>
  </symbol>
  <symbol xmlns="http://www.w3.org/2000/svg" viewBox="0 0 24 24" id="facebook">
    <path d="M15.997 3.985h2.191V.169C17.81.117 16.51 0 14.996 0c-3.159 0-5.323 1.987-5.323 5.639V9H6.187v4.266h3.486V24h4.274V13.267h3.345l.531-4.266h-3.877V6.062c.001-1.233.333-2.077 2.051-2.077z" data-original="#000000" data-old_color="#000000" ></path>
  </symbol>
  <symbol xmlns="http://www.w3.org/2000/svg" viewBox="0 0 12.061 12.059" id="instagram">
    <path d="M6.032 2.938A3.092 3.092 0 1 0 9.124 6.03a3.087 3.087 0 0 0-3.092-3.092zm0 5.1a2.01 2.01 0 1 1 2.01-2.01 2.014 2.014 0 0 1-2.01 2.01zm3.943-5.227a.721.721 0 1 1-.721-.721.719.719 0 0 1 .721.721zm2.048.732a3.569 3.569 0 0 0-.974-2.527A3.592 3.592 0 0 0 8.522.042c-1-.057-3.98-.057-4.975 0a3.587 3.587 0 0 0-2.527.971A3.58 3.58 0 0 0 .046 3.54c-.057 1-.057 3.98 0 4.975a3.569 3.569 0 0 0 .974 2.527 3.6 3.6 0 0 0 2.527.974c1 .057 3.98.057 4.975 0a3.569 3.569 0 0 0 2.527-.974 3.592 3.592 0 0 0 .974-2.527c.052-.995.052-3.976-.004-4.972zm-1.286 6.041a2.035 2.035 0 0 1-1.146 1.146 13.289 13.289 0 0 1-3.554.242 13.393 13.393 0 0 1-3.562-.242 2.035 2.035 0 0 1-1.146-1.146 13.29 13.29 0 0 1-.242-3.554 13.393 13.393 0 0 1 .244-3.555 2.035 2.035 0 0 1 1.144-1.146 13.289 13.289 0 0 1 3.554-.242 13.393 13.393 0 0 1 3.554.242 2.035 2.035 0 0 1 1.15 1.146 13.289 13.289 0 0 1 .242 3.554 13.282 13.282 0 0 1-.242 3.555z"
      ></path>
  </symbol>
  <symbol xmlns="http://www.w3.org/2000/svg" viewBox="0 0 10.5 14.738" id="map">
    <path d="M4.71 14.441C.737 8.378 0 7.755 0 5.527A5.394 5.394 0 0 1 5.25 0a5.394 5.394 0 0 1 5.25 5.527c0 2.228-.737 2.851-4.71 8.914a.638.638 0 0 1-1.08 0zm.54-6.611a2.247 2.247 0 0 0 2.187-2.3 2.247 2.247 0 0 0-2.187-2.3 2.247 2.247 0 0 0-2.187 2.3 2.247 2.247 0 0 0 2.187 2.3z"
      fill="#777777"></path>
  </symbol>
  <symbol xmlns="http://www.w3.org/2000/svg" viewBox="0 0 16.047 16.047" id="phone">
    <path d="M15.589 11.34l-3.51-1.5a.752.752 0 0 0-.878.216l-1.555 1.9a11.617 11.617 0 0 1-5.553-5.562l1.9-1.555a.75.75 0 0 0 .216-.878L4.7.455a.757.757 0 0 0-.858-.436L.583.771A.752.752 0 0 0 0 1.505a14.541 14.541 0 0 0 14.542 14.542.752.752 0 0 0 .733-.583l.752-3.26a.761.761 0 0 0-.439-.865z"
      fill="#777777"></path>
  </symbol>
</svg>