<svg width="0" height="0" class="hidden" display="none">
<symbol xmlns="http://www.w3.org/2000/svg" viewBox="0 0 19.585 11.886" id="arrow-up">
    <path d="M10.554.315l8.716 8.716a1.076 1.076 0 0 1 0 1.522l-1.017 1.017a1.076 1.076 0 0 1-1.52 0l-6.94-6.908-6.94 6.908a1.076 1.076 0 0 1-1.52 0L.316 10.553a1.076 1.076 0 0 1 0-1.522L9.032.315a1.076 1.076 0 0 1 1.522 0z" fill="#fff"></path>
  </symbol>
<symbol xmlns="http://www.w3.org/2000/svg" viewBox="0 0 40.792 39.759" id="arrow-left">
    <path d="M23.45 37.096l-2.021 2.021a2.176 2.176 0 0 1-3.086 0L.642 21.427a2.176 2.176 0 0 1 0-3.086l17.7-17.7a2.176 2.176 0 0 1 3.086 0l2.022 2.022a2.188 2.188 0 0 1-.036 3.123L12.441 16.238h26.166a2.18 2.18 0 0 1 2.185 2.185v2.913a2.18 2.18 0 0 1-2.185 2.185H12.441l10.971 10.452a2.172 2.172 0 0 1 .038 3.123z"
      fill="#fff"></path>
  </symbol>
<symbol xmlns="http://www.w3.org/2000/svg" viewBox="0 0 40.792 39.759" id="arrow-left-emeraude">
    <path d="M23.45 37.096l-2.021 2.021a2.176 2.176 0 0 1-3.086 0L.642 21.427a2.176 2.176 0 0 1 0-3.086l17.7-17.7a2.176 2.176 0 0 1 3.086 0l2.022 2.022a2.188 2.188 0 0 1-.036 3.123L12.441 16.238h26.166a2.18 2.18 0 0 1 2.185 2.185v2.913a2.18 2.18 0 0 1-2.185 2.185H12.441l10.971 10.452a2.172 2.172 0 0 1 .038 3.123z"
      fill="#023d2b"></path>
  </symbol>
  <symbol viewBox="0 0 16 14" fill="none" xmlns="http://www.w3.org/2000/svg" id="arrow-right">
    <path d="M9.3.3L7.9 1.7 12.2 6H0v2h12.2l-4.3 4.3 1.4 1.4L16 7 9.3.3z" fill="#fff"></path>
  </symbol>
  <symbol viewBox="0 0 16 14" fill="none" xmlns="http://www.w3.org/2000/svg" id="arrow-right-emeraude">
    <path d="M9.3.3L7.9 1.7 12.2 6H0v2h12.2l-4.3 4.3 1.4 1.4L16 7 9.3.3z" fill="#023d2b"></path>
  </symbol>
  <symbol xmlns="http://www.w3.org/2000/svg" viewBox="0 0 12 9" id="envelop">
    <path d="M11.773 2.972a.141.141 0 0 1 .227.11v4.793A1.125 1.125 0 0 1 10.875 9h-9.75A1.125 1.125 0 0 1 0 7.875V3.084a.14.14 0 0 1 .227-.11c.525.408 1.221.926 3.612 2.662A4.193 4.193 0 0 0 6 6.752a4.2 4.2 0 0 0 2.163-1.116c2.391-1.736 3.085-2.256 3.61-2.664zM6 6c.544.009 1.327-.684 1.72-.97 3.11-2.257 3.347-2.454 4.064-3.016A.561.561 0 0 0 12 1.57v-.445A1.125 1.125 0 0 0 10.875 0h-9.75A1.125 1.125 0 0 0 0 1.125v.445a.564.564 0 0 0 .216.443c.717.56.954.759 4.064 3.016.393.287 1.176.98 1.72.971z"
      fill="#777777"></path>
  </symbol>
  <symbol xmlns="http://www.w3.org/2000/svg" viewBox="0 0 12 9" id="envelopGold">
    <path d="M11.773 2.972a.141.141 0 0 1 .227.11v4.793A1.125 1.125 0 0 1 10.875 9h-9.75A1.125 1.125 0 0 1 0 7.875V3.084a.14.14 0 0 1 .227-.11c.525.408 1.221.926 3.612 2.662A4.193 4.193 0 0 0 6 6.752a4.2 4.2 0 0 0 2.163-1.116c2.391-1.736 3.085-2.256 3.61-2.664zM6 6c.544.009 1.327-.684 1.72-.97 3.11-2.257 3.347-2.454 4.064-3.016A.561.561 0 0 0 12 1.57v-.445A1.125 1.125 0 0 0 10.875 0h-9.75A1.125 1.125 0 0 0 0 1.125v.445a.564.564 0 0 0 .216.443c.717.56.954.759 4.064 3.016.393.287 1.176.98 1.72.971z"
      fill="#D6A859"></path>
  </symbol>
  <symbol xmlns="http://www.w3.org/2000/svg" viewBox="0 0 24 24" id="facebook">
    <path d="M15.997 3.985h2.191V.169C17.81.117 16.51 0 14.996 0c-3.159 0-5.323 1.987-5.323 5.639V9H6.187v4.266h3.486V24h4.274V13.267h3.345l.531-4.266h-3.877V6.062c.001-1.233.333-2.077 2.051-2.077z" data-original="#000000" data-old_color="#000000" ></path>
  </symbol>
  <symbol xmlns="http://www.w3.org/2000/svg" viewBox="0 0 24 24" id="fbGold">
    <path d="M15.997 3.985h2.191V.169C17.81.117 16.51 0 14.996 0c-3.159 0-5.323 1.987-5.323 5.639V9H6.187v4.266h3.486V24h4.274V13.267h3.345l.531-4.266h-3.877V6.062c.001-1.233.333-2.077 2.051-2.077z" data-original="#000000" data-old_color="#D6A859" fill="#D6A859" ></path>
  </symbol>
  <symbol xmlns="http://www.w3.org/2000/svg" viewBox="0 0 12.061 12.059" id="instagram">
    <path d="M6.032 2.938A3.092 3.092 0 1 0 9.124 6.03a3.087 3.087 0 0 0-3.092-3.092zm0 5.1a2.01 2.01 0 1 1 2.01-2.01 2.014 2.014 0 0 1-2.01 2.01zm3.943-5.227a.721.721 0 1 1-.721-.721.719.719 0 0 1 .721.721zm2.048.732a3.569 3.569 0 0 0-.974-2.527A3.592 3.592 0 0 0 8.522.042c-1-.057-3.98-.057-4.975 0a3.587 3.587 0 0 0-2.527.971A3.58 3.58 0 0 0 .046 3.54c-.057 1-.057 3.98 0 4.975a3.569 3.569 0 0 0 .974 2.527 3.6 3.6 0 0 0 2.527.974c1 .057 3.98.057 4.975 0a3.569 3.569 0 0 0 2.527-.974 3.592 3.592 0 0 0 .974-2.527c.052-.995.052-3.976-.004-4.972zm-1.286 6.041a2.035 2.035 0 0 1-1.146 1.146 13.289 13.289 0 0 1-3.554.242 13.393 13.393 0 0 1-3.562-.242 2.035 2.035 0 0 1-1.146-1.146 13.29 13.29 0 0 1-.242-3.554 13.393 13.393 0 0 1 .244-3.555 2.035 2.035 0 0 1 1.144-1.146 13.289 13.289 0 0 1 3.554-.242 13.393 13.393 0 0 1 3.554.242 2.035 2.035 0 0 1 1.15 1.146 13.289 13.289 0 0 1 .242 3.554 13.282 13.282 0 0 1-.242 3.555z"
      ></path>
  </symbol>
  <symbol xmlns="http://www.w3.org/2000/svg" viewBox="0 0 511.977 511.977" id="pinterest">
    <path d="M262.948 0C122.628 0 48.004 89.92 48.004 187.968c0 45.472 25.408 102.176 66.08 120.16 6.176 2.784 9.536 1.6 10.912-4.128 1.216-4.352 6.56-25.312 9.152-35.2.8-3.168.384-5.92-2.176-8.896-13.504-15.616-24.224-44.064-24.224-70.752 0-68.384 54.368-134.784 146.88-134.784 80 0 135.968 51.968 135.968 126.304 0 84-44.448 142.112-102.208 142.112-31.968 0-55.776-25.088-48.224-56.128 9.12-36.96 27.008-76.704 27.008-103.36 0-23.904-13.504-43.68-41.088-43.68-32.544 0-58.944 32.224-58.944 75.488 0 27.488 9.728 46.048 9.728 46.048S144.676 371.2 138.692 395.488c-10.112 41.12 1.376 107.712 2.368 113.44.608 3.168 4.16 4.16 6.144 1.568 3.168-4.16 42.08-59.68 52.992-99.808 3.968-14.624 20.256-73.92 20.256-73.92 10.72 19.36 41.664 35.584 74.624 35.584 98.048 0 168.896-86.176 168.896-193.12C463.62 76.704 375.876 0 262.948 0z"
      data-original="#000000" data-old_color="#000000" ></path>
  </symbol>
  <symbol xmlns="http://www.w3.org/2000/svg" viewBox="0 0 511.977 511.977" id="pinteGold">
    <path d="M262.948 0C122.628 0 48.004 89.92 48.004 187.968c0 45.472 25.408 102.176 66.08 120.16 6.176 2.784 9.536 1.6 10.912-4.128 1.216-4.352 6.56-25.312 9.152-35.2.8-3.168.384-5.92-2.176-8.896-13.504-15.616-24.224-44.064-24.224-70.752 0-68.384 54.368-134.784 146.88-134.784 80 0 135.968 51.968 135.968 126.304 0 84-44.448 142.112-102.208 142.112-31.968 0-55.776-25.088-48.224-56.128 9.12-36.96 27.008-76.704 27.008-103.36 0-23.904-13.504-43.68-41.088-43.68-32.544 0-58.944 32.224-58.944 75.488 0 27.488 9.728 46.048 9.728 46.048S144.676 371.2 138.692 395.488c-10.112 41.12 1.376 107.712 2.368 113.44.608 3.168 4.16 4.16 6.144 1.568 3.168-4.16 42.08-59.68 52.992-99.808 3.968-14.624 20.256-73.92 20.256-73.92 10.72 19.36 41.664 35.584 74.624 35.584 98.048 0 168.896-86.176 168.896-193.12C463.62 76.704 375.876 0 262.948 0z"
      data-original="#000000" data-old_color="#000000" fill="#D6A859"></path>
  </symbol>
  <symbol xmlns="http://www.w3.org/2000/svg" viewBox="0 0 12.061 12.059" id="instaGold">
    <path d="M6.032 2.938A3.092 3.092 0 1 0 9.124 6.03a3.087 3.087 0 0 0-3.092-3.092zm0 5.1a2.01 2.01 0 1 1 2.01-2.01 2.014 2.014 0 0 1-2.01 2.01zm3.943-5.227a.721.721 0 1 1-.721-.721.719.719 0 0 1 .721.721zm2.048.732a3.569 3.569 0 0 0-.974-2.527A3.592 3.592 0 0 0 8.522.042c-1-.057-3.98-.057-4.975 0a3.587 3.587 0 0 0-2.527.971A3.58 3.58 0 0 0 .046 3.54c-.057 1-.057 3.98 0 4.975a3.569 3.569 0 0 0 .974 2.527 3.6 3.6 0 0 0 2.527.974c1 .057 3.98.057 4.975 0a3.569 3.569 0 0 0 2.527-.974 3.592 3.592 0 0 0 .974-2.527c.052-.995.052-3.976-.004-4.972zm-1.286 6.041a2.035 2.035 0 0 1-1.146 1.146 13.289 13.289 0 0 1-3.554.242 13.393 13.393 0 0 1-3.562-.242 2.035 2.035 0 0 1-1.146-1.146 13.29 13.29 0 0 1-.242-3.554 13.393 13.393 0 0 1 .244-3.555 2.035 2.035 0 0 1 1.144-1.146 13.289 13.289 0 0 1 3.554-.242 13.393 13.393 0 0 1 3.554.242 2.035 2.035 0 0 1 1.15 1.146 13.289 13.289 0 0 1 .242 3.554 13.282 13.282 0 0 1-.242 3.555z" fill="#D6A859"
      ></path>
  </symbol>
  <symbol xmlns="http://www.w3.org/2000/svg" viewBox="0 0 10.5 14.738" id="map">
    <path d="M4.71 14.441C.737 8.378 0 7.755 0 5.527A5.394 5.394 0 0 1 5.25 0a5.394 5.394 0 0 1 5.25 5.527c0 2.228-.737 2.851-4.71 8.914a.638.638 0 0 1-1.08 0zm.54-6.611a2.247 2.247 0 0 0 2.187-2.3 2.247 2.247 0 0 0-2.187-2.3 2.247 2.247 0 0 0-2.187 2.3 2.247 2.247 0 0 0 2.187 2.3z"
      fill="#777777"></path>
  </symbol>
  <symbol xmlns="http://www.w3.org/2000/svg" viewBox="0 0 10.5 14.738" id="mapGold">
    <path d="M4.71 14.441C.737 8.378 0 7.755 0 5.527A5.394 5.394 0 0 1 5.25 0a5.394 5.394 0 0 1 5.25 5.527c0 2.228-.737 2.851-4.71 8.914a.638.638 0 0 1-1.08 0zm.54-6.611a2.247 2.247 0 0 0 2.187-2.3 2.247 2.247 0 0 0-2.187-2.3 2.247 2.247 0 0 0-2.187 2.3 2.247 2.247 0 0 0 2.187 2.3z"
      fill="#D6A859"></path>
  </symbol>
  <symbol xmlns="http://www.w3.org/2000/svg" viewBox="0 0 16.047 16.047" id="phone">
    <path d="M15.589 11.34l-3.51-1.5a.752.752 0 0 0-.878.216l-1.555 1.9a11.617 11.617 0 0 1-5.553-5.562l1.9-1.555a.75.75 0 0 0 .216-.878L4.7.455a.757.757 0 0 0-.858-.436L.583.771A.752.752 0 0 0 0 1.505a14.541 14.541 0 0 0 14.542 14.542.752.752 0 0 0 .733-.583l.752-3.26a.761.761 0 0 0-.439-.865z"
      fill="#777777"></path>
  </symbol>
  <symbol xmlns="http://www.w3.org/2000/svg" viewBox="0 0 16.047 16.047" id="phoneGold">
    <path d="M15.589 11.34l-3.51-1.5a.752.752 0 0 0-.878.216l-1.555 1.9a11.617 11.617 0 0 1-5.553-5.562l1.9-1.555a.75.75 0 0 0 .216-.878L4.7.455a.757.757 0 0 0-.858-.436L.583.771A.752.752 0 0 0 0 1.505a14.541 14.541 0 0 0 14.542 14.542.752.752 0 0 0 .733-.583l.752-3.26a.761.761 0 0 0-.439-.865z"
      fill="#D6A859"></path>
  </symbol>
<symbol xmlns="http://www.w3.org/2000/svg" viewBox="0 0 140.201 12.506" id="divider_coeur">
    <path d="M75.907.855a3.817 3.817 0 0 0-5.209.38l-.55.567-.55-.567a3.817 3.817 0 0 0-5.209-.38 4.008 4.008 0 0 0-.276 5.8l5.401 5.578a.875.875 0 0 0 1.265 0l5.4-5.577a4.006 4.006 0 0 0-.274-5.8z" fill="#fff"></path>
    <path fill="none" stroke="#fff" stroke-width="2" d="M85.185 6.211H140.2M0 6.211h55.015"></path>
  </symbol>
  <symbol xmlns="http://www.w3.org/2000/svg" viewBox="0 0 95.274 10.771" id="divider_trefle">
    <path d="M57.888 5.783h37.386M0 5.783h37.386" fill="none" stroke="#023d2b" stroke-width="2"></path>
    <path d="M47.593 4.7a.328.328 0 0 0 .461 0 18.241 18.241 0 0 0 1.6-1.726 2.8 2.8 0 0 0 .653-1.654 1.316 1.316 0 0 0-2.488-.6 1.316 1.316 0 0 0-2.487.6 2.8 2.8 0 0 0 .653 1.654A18.453 18.453 0 0 0 47.593 4.7zm.46 1.371a.328.328 0 0 0-.461 0 18.34 18.34 0 0 0-1.6 1.726 2.8 2.8 0 0 0-.653 1.655 1.317 1.317 0 0 0 2.488.6 1.317 1.317 0 0 0 2.488-.6 2.8 2.8 0 0 0-.653-1.655 18.169 18.169 0 0 0-1.609-1.726zm4.439-.686a1.317 1.317 0 0 0-.6-2.488 2.8 2.8 0 0 0-1.654.653 18.341 18.341 0 0 0-1.726 1.6.327.327 0 0 0 0 .461 18.4 18.4 0 0 0 1.726 1.6 2.8 2.8 0 0 0 1.654.653 1.316 1.316 0 0 0 .6-2.487zm-5.356.23a.328.328 0 0 0 0-.461 18.341 18.341 0 0 0-1.724-1.599 2.8 2.8 0 0 0-1.653-.653 1.317 1.317 0 0 0-.6 2.488 1.316 1.316 0 0 0 .6 2.487 2.8 2.8 0 0 0 1.654-.653 18.4 18.4 0 0 0 1.723-1.609z"
      fill="#023d2b"></path>
  </symbol>
  <symbol xmlns="http://www.w3.org/2000/svg" viewBox="0 0 475.082 475.081" id="quote">
    <path d="M164.45,219.27h-63.954c-7.614,0-14.087-2.664-19.417-7.994c-5.327-5.33-7.994-11.801-7.994-19.417v-9.132    c0-20.177,7.139-37.401,21.416-51.678c14.276-14.272,31.503-21.411,51.678-21.411h18.271c4.948,0,9.229-1.809,12.847-5.424    c3.616-3.617,5.424-7.898,5.424-12.847V54.819c0-4.948-1.809-9.233-5.424-12.85c-3.617-3.612-7.898-5.424-12.847-5.424h-18.271    c-19.797,0-38.684,3.858-56.673,11.563c-17.987,7.71-33.545,18.132-46.68,31.267c-13.134,13.129-23.553,28.688-31.262,46.677    C3.855,144.039,0,162.931,0,182.726v200.991c0,15.235,5.327,28.171,15.986,38.834c10.66,10.657,23.606,15.985,38.832,15.985    h109.639c15.225,0,28.167-5.328,38.828-15.985c10.657-10.663,15.987-23.599,15.987-38.834V274.088    c0-15.232-5.33-28.168-15.994-38.832C192.622,224.6,179.675,219.27,164.45,219.27z" data-original="#000000" class="active-path" data-old_color="#000000" fill="#FFFFFF"/>
		<path d="M459.103,235.256c-10.656-10.656-23.599-15.986-38.828-15.986h-63.953c-7.61,0-14.089-2.664-19.41-7.994    c-5.332-5.33-7.994-11.801-7.994-19.417v-9.132c0-20.177,7.139-37.401,21.409-51.678c14.271-14.272,31.497-21.411,51.682-21.411    h18.267c4.949,0,9.233-1.809,12.848-5.424c3.613-3.617,5.428-7.898,5.428-12.847V54.819c0-4.948-1.814-9.233-5.428-12.85    c-3.614-3.612-7.898-5.424-12.848-5.424h-18.267c-19.808,0-38.691,3.858-56.685,11.563c-17.984,7.71-33.537,18.132-46.672,31.267    c-13.135,13.129-23.559,28.688-31.265,46.677c-7.707,17.987-11.567,36.879-11.567,56.674v200.991    c0,15.235,5.332,28.171,15.988,38.834c10.657,10.657,23.6,15.985,38.828,15.985h109.633c15.229,0,28.171-5.328,38.827-15.985    c10.664-10.663,15.985-23.599,15.985-38.834V274.088C475.082,258.855,469.76,245.92,459.103,235.256z" data-original="#000000" class="active-path" data-old_color="#000000" fill="#FFFFFF"/>	
  </symbol>
  <symbol xmlns="http://www.w3.org/2000/svg" viewBox="0 0 513.28 513.28" id="search">
    <path d="M495.04,404.48L410.56,320c15.36-30.72,25.6-66.56,25.6-102.4C436.16,97.28,338.88,0,218.56,0S0.96,97.28,0.96,217.6    s97.28,217.6,217.6,217.6c35.84,0,71.68-10.24,102.4-25.6l84.48,84.48c25.6,25.6,64,25.6,89.6,0    C518.08,468.48,518.08,430.08,495.04,404.48z M218.56,384c-92.16,0-166.4-74.24-166.4-166.4S126.4,51.2,218.56,51.2    s166.4,74.24,166.4,166.4S310.72,384,218.56,384z" data-original="#000000" class="active-path" data-old_color="#000000" fill="#FFFFFF"/>
    </symbol>
  <symbol xmlns="http://www.w3.org/2000/svg" viewBox="0 0 492.004 492.004" style="enable-background:new 0 0 492.004 492.004;" xml:space="preserve" id="next">
    <path d="M484.14,226.886L306.46,49.202c-5.072-5.072-11.832-7.856-19.04-7.856c-7.216,0-13.972,2.788-19.044,7.856l-16.132,16.136    c-5.068,5.064-7.86,11.828-7.86,19.04c0,7.208,2.792,14.2,7.86,19.264L355.9,207.526H26.58C11.732,207.526,0,219.15,0,234.002    v22.812c0,14.852,11.732,27.648,26.58,27.648h330.496L252.248,388.926c-5.068,5.072-7.86,11.652-7.86,18.864    c0,7.204,2.792,13.88,7.86,18.948l16.132,16.084c5.072,5.072,11.828,7.836,19.044,7.836c7.208,0,13.968-2.8,19.04-7.872    l177.68-177.68c5.084-5.088,7.88-11.88,7.86-19.1C492.02,238.762,489.228,231.966,484.14,226.886z" />
	</symbol>
    </symbol>  
  <symbol xmlns="http://www.w3.org/2000/svg" viewBox="0 0 492 492" style="enable-background:new 0 0 492 492;" xml:space="preserve" id="back">
    <path d="M464.344,207.418l0.768,0.168H135.888l103.496-103.724c5.068-5.064,7.848-11.924,7.848-19.124    c0-7.2-2.78-14.012-7.848-19.088L223.28,49.538c-5.064-5.064-11.812-7.864-19.008-7.864c-7.2,0-13.952,2.78-19.016,7.844    L7.844,226.914C2.76,231.998-0.02,238.77,0,245.974c-0.02,7.244,2.76,14.02,7.844,19.096l177.412,177.412    c5.064,5.06,11.812,7.844,19.016,7.844c7.196,0,13.944-2.788,19.008-7.844l16.104-16.112c5.068-5.056,7.848-11.808,7.848-19.008    c0-7.196-2.78-13.592-7.848-18.652L134.72,284.406h329.992c14.828,0,27.288-12.78,27.288-27.6v-22.788    C492,219.198,479.172,207.418,464.344,207.418z" data-original="#000000" class="active-path" data-old_color="#000000" />
	</symbol>
</svg>