<?xml version="1.0" encoding="utf-8"?><svg xmlns="http://www.w3.org/2000/svg" xmlns:xlink="http://www.w3.org/1999/xlink" width="121.207" height="35.346" viewBox="0 0 121.207 35.346">
  <defs>
    <filter id="Exclusion_10" x="0" y="0" width="121.207" height="35.346" filterUnits="userSpaceOnUse">
      <feOffset dx="1" dy="1" input="SourceAlpha"/>
      <feGaussianBlur stdDeviation="1" result="blur"/>
      <feFlood flood-opacity="0.51"/>
      <feComposite operator="in" in2="blur"/>
      <feComposite in="SourceGraphic"/>
    </filter>
  </defs>
  <g transform="matrix(1, 0, 0, 1, 0, 0)" filter="url(#Exclusion_10)">
    <path id="Exclusion_10-2" data-name="Exclusion 10" d="M7.633,29.347c-.258,0-.5,0-.686-.008h0c-.142,0-.264,0-.363,0a10.127,10.127,0,0,1-2.856-.575A7.124,7.124,0,0,1,2.064,27.35,8.805,8.805,0,0,1,.5,25.245a5.816,5.816,0,0,1-.324-1.516C.1,23.1.046,22.342.018,21.524A15.4,15.4,0,0,1,.147,18.15l.026-.075a26.04,26.04,0,0,1,1.445-3.527c.536-.928,1.407-2.281,1.444-2.339.08-.093,1.964-2.29,2.761-3.03l.3-.279a22.7,22.7,0,0,1,2.9-2.435c.283-.171.671-.442,1.119-.757a17.9,17.9,0,0,1,3.427-2.056,7.525,7.525,0,0,1,2.746-.663l.257-.013c.2-.011.436-.024.689-.024a7.062,7.062,0,0,1,2.7.546,3.135,3.135,0,0,1,1.647,1.465,3.082,3.082,0,0,1,.33.944,20.231,20.231,0,0,1-.088,2.9l-.018.072a6.962,6.962,0,0,1-1.344,2.911l-.239.287a16.3,16.3,0,0,1-3.823,3.6,23.829,23.829,0,0,1-5.011,2.63,14.346,14.346,0,0,1-2.891.707,15.575,15.575,0,0,1-1.853.177c-.114,0-.348-.011-.645-.024-.5-.023-1.188-.054-1.751-.054a3.405,3.405,0,0,0-.964.079l-.04.016c-.413.166-.662.265-.641.779.005.131,0,.324-.009.567a9.337,9.337,0,0,0,.185,2.7l.037.131,0,.009a3.791,3.791,0,0,0,1.542,2.579,4.413,4.413,0,0,0,1.933.84l.1.008c.265.022.666.056,1.142.056a8.468,8.468,0,0,0,1.967-.218l.3-.07a14.984,14.984,0,0,0,2.406-.726,15.443,15.443,0,0,0,3.338-1.923c1.722-1.268,3.485-2.651,4.9-3.762h0c.879-.689,1.572-1.233,2.018-1.563a6.67,6.67,0,0,1,1.138-.634c.882-.418,1.716-.813,1.96-2.04a19.867,19.867,0,0,1,.736-2.735,10.093,10.093,0,0,1,1.2-2.437c.218-.309.4-.593.573-.867A15.82,15.82,0,0,1,31.34,6.15,47.945,47.945,0,0,1,35.17,2.94,19.231,19.231,0,0,1,36.885,1.8a8.4,8.4,0,0,1,1.506-.71c.411-.138.774-.265,1.094-.376h0A9.5,9.5,0,0,1,42.147.028C42.462.009,42.7,0,42.906,0a4.23,4.23,0,0,1,1.482.249,7.353,7.353,0,0,1,1.241.544,3.283,3.283,0,0,1,.977.76,2.974,2.974,0,0,1,.453,1.061A5.174,5.174,0,0,1,47.2,3.94c0,.1,0,.208-.006.31v0a6.5,6.5,0,0,1-.3,2.25,6.888,6.888,0,0,1-.681,1.334,30.208,30.208,0,0,1-2,2.644,12.546,12.546,0,0,1-3.158,3c-.2.131-.382.255-.576.4a13.96,13.96,0,0,1-2.817,1.321,17.958,17.958,0,0,1-3.246.956,12.718,12.718,0,0,1-1.7.1c-.655,0-1.313-.033-1.893-.062h0c-.282-.014-.549-.028-.8-.037-.059,0-.118,0-.175,0a2.865,2.865,0,0,0-1.3.262,1.218,1.218,0,0,0-.607.625,5.217,5.217,0,0,0-.231,1.439,5.244,5.244,0,0,0,.231,1.92,6.074,6.074,0,0,0,.61,1.309,7.778,7.778,0,0,0,.972,1.144c.175.181.344.371.523.573a6.787,6.787,0,0,0,3.08,2.256A23.529,23.529,0,0,0,36.766,26.7a51.388,51.388,0,0,0,5.316.265,52.486,52.486,0,0,0,5.777-.376c.244-.052.548-.11.9-.177a23.293,23.293,0,0,0,4.175-1.06c.42-.181.979-.357,1.627-.561h0c.742-.234,1.582-.5,2.443-.843a13.183,13.183,0,0,0,2.541-1.314c.533-.362,1.082-.72,1.614-1.065a20.5,20.5,0,0,0,4.559-3.553c.367-.448.706-.813.978-1.107.734-.791,1.1-1.188.735-1.766a17.774,17.774,0,0,0-2.266-2.353c-.2-.184-.356-.33-.436-.41A30.169,30.169,0,0,1,61.5,8.47a9.122,9.122,0,0,1-1.12-3.89,2.081,2.081,0,0,1,.308-1.227,1.551,1.551,0,0,1,1.032-.7,3.55,3.55,0,0,1,.671-.07,5.014,5.014,0,0,1,2.031.578c.381.167.689.336.96.485a2.7,2.7,0,0,0,1.3.469,1.591,1.591,0,0,0,.286-.026A2.2,2.2,0,0,0,68.3,3.057c.151-.2.308-.4.494-.6a6.939,6.939,0,0,1,1.464-1.1A5.541,5.541,0,0,1,71.868.669,4.358,4.358,0,0,1,72.638.6a3.38,3.38,0,0,1,1.712.374,2.66,2.66,0,0,1,1.142,1.834,6.327,6.327,0,0,1-.069,1.633,10.477,10.477,0,0,1-.415,1.749c-.051.151-.091.276-.131.4a27.691,27.691,0,0,1-1.8,4.089A17.9,17.9,0,0,1,71.321,13.7c-.291.4-.36.5-.244.827.1.291.545.6,1.315.906a14.54,14.54,0,0,0,1.562.508c.406.11,2.563.818,3.852,1.242l.005,0c.531.174.915.3,1,.326.246.076,3.582.991,5.36,1.326,1.012.191,3.084.416,4.229.533,1.591.163,3.023.285,3.24.285.119,0,.313.022.607.055a37.472,37.472,0,0,0,4.577.254c1.1,0,2.312.013,3.482.026h0c1.113.012,2.165.023,3.078.023,1.064,0,1.764-.016,2.2-.049,1.564-.119,6.41-.628,7.359-1.127.281-.148.5-.282.668-.39a1.454,1.454,0,0,1,.777-.321,1.168,1.168,0,0,1,.312.048.648.648,0,0,1,.435.309,1.233,1.233,0,0,1-.061.907.975.975,0,0,1-.544.575,7.5,7.5,0,0,1-1.367.442,46.719,46.719,0,0,1-8.347,1.3l-1.808.077c-2.616.112-5.581.239-6.919.239-.164,0-.3,0-.41-.006-.637-.022-3.475-.307-6.2-.622-1.614-.186-5.463-.648-6.346-.9-.905-.262-3.322-.9-5.265-1.412h0c-1.156-.3-2.069-.546-2.333-.62-.19-.054-.672-.243-1.284-.482a22.507,22.507,0,0,0-4.47-1.459.371.371,0,0,0-.2.041,1.29,1.29,0,0,0-.48.589,5.884,5.884,0,0,1-.75,1.135,32.487,32.487,0,0,1-2.86,2.86l0,0-.3.276c-.316.294-1.946,1.347-3.246,2.16s-3.025,1.858-3.608,2.127c-.544.251-2.9,1.026-4.921,1.669-2.321.737-4.323,1.34-4.657,1.4-.668.126-4,.486-4.24.486h-.188c-.386,0-1.291.011-2.333.011-1.714,0-3.875-.021-4.442-.123a53.987,53.987,0,0,1-5.338-1.348,14.047,14.047,0,0,1-2.188-1.177,10.253,10.253,0,0,1-1.941-1.475l-.126-.143a7.919,7.919,0,0,1-1.851-2.951,8.035,8.035,0,0,1-.321-1.512c-.061-.466-.1-.722-.338-.808a1.523,1.523,0,0,0-.481-.12.886.886,0,0,0-.529.23c-.164.121-.351.284-.55.456a8.619,8.619,0,0,1-.966.76c-.514.323-5.267,4.02-5.469,4.177-.014.009-1.379.853-2.9,1.732a27.8,27.8,0,0,1-4,2.047A10.835,10.835,0,0,1,7.633,29.347Zm9.2-24.38a7.5,7.5,0,0,0-1,.1,7.2,7.2,0,0,0-3.163,1.348c-.346.248-.719.521-1.114.81l0,0h0c-.552.4-1.178.863-1.87,1.353A19.457,19.457,0,0,0,7.116,11.36c-.9,1.107-1.667,2.139-1.675,2.149-.018.025-1.8,2.548-2.109,3.16-.076.153-.09.266-.043.345.087.146.371.154.673.163.128,0,.26.008.381.022.146.018.428.027.795.027a23.254,23.254,0,0,0,3.665-.27,9.486,9.486,0,0,0,2.5-.954c.379-.188.771-.382,1.208-.571a11.752,11.752,0,0,0,2.792-1.94c.308-.26.625-.53.942-.779a6.842,6.842,0,0,0,1.2-1.251c.331-.434.59-.849.8-1.182.112-.179.208-.334.285-.44A6.058,6.058,0,0,0,19.28,8.4a5.375,5.375,0,0,0,.007-1.146,1.982,1.982,0,0,1-.008-.225h0s.008-.015.013-.037a1.447,1.447,0,0,0-.355-1.171,1.683,1.683,0,0,0-.582-.406A3.586,3.586,0,0,0,16.829,4.967Zm25.06-2.614a6.257,6.257,0,0,0-2.553.769,16.86,16.86,0,0,0-2.565,1.453C35.833,5.2,35.02,5.839,34.5,6.26a22.431,22.431,0,0,0-2.389,2.577c-.782.947-1.427,1.79-1.433,1.8s-.507.688-.9,1.282a14.42,14.42,0,0,0-1.142,1.9.125.125,0,0,0,.012.117c.109.17.621.287,1.522.347h0c.043,0,.108,0,.191,0,.519,0,1.67-.056,2.2-.093a16.868,16.868,0,0,0,3.778-.928,18.95,18.95,0,0,0,1.851-.959c.765-.445,1.532-.94,2.279-1.473a9.125,9.125,0,0,0,2.09-2.026c.182-.231.354-.448.546-.648a6.442,6.442,0,0,0,1-1.583,3.7,3.7,0,0,0,.453-1.533c-.012-.112-.018-.223-.024-.33a3,3,0,0,0-.108-.751,2.205,2.205,0,0,0-.505-.842A1.6,1.6,0,0,0,42.5,2.387l-.223-.017C42.129,2.358,42,2.353,41.889,2.353Zm20.8,2.194a.523.523,0,0,0-.312.1c-.232.162-.114.4.065.763.041.083.087.177.133.276a14.248,14.248,0,0,0,1.692,2.851c.7.787,2.269,2.743,2.285,2.763s1.478,1.486,2,1.923c.217.182.357.26.47.26.165,0,.281-.168.474-.447L69.518,13a7.427,7.427,0,0,0,.547-1.039c.165-.354.352-.755.6-1.193l.06-.109a23.507,23.507,0,0,0,1.258-2.521c.554-1.277,1.071-2.659,1.318-3.4.265-.8.352-1.258.132-1.7a.879.879,0,0,0-.81-.484,1.018,1.018,0,0,0-.2.02,4.9,4.9,0,0,0-1.626.862l-.055.045a9.589,9.589,0,0,0-1.548,1.48c-.286.336-.485.589-.644.792a7.358,7.358,0,0,1-.608.711.659.659,0,0,1-.481.217,2.169,2.169,0,0,1-.877-.315l-.007,0L66.465,6.3c-.6-.3-1.436-.712-1.471-.729a11.416,11.416,0,0,0-1.582-.84l-.179-.059A1.846,1.846,0,0,0,62.691,4.547Z" transform="translate(2 2)" fill="#fff"/>
  </g>
</svg>
